<mxfile host="65bd71144e">
    <diagram id="PHOotXeg2YetA_VMyJM7" name="第 1 页">
        <mxGraphModel dx="2226" dy="1740" grid="1" gridSize="10" guides="1" tooltips="1" connect="1" arrows="1" fold="1" page="1" pageScale="1" pageWidth="827" pageHeight="1169" math="0" shadow="0">
            <root>
                <mxCell id="0"/>
                <mxCell id="1" parent="0"/>
                <mxCell id="3" value="" style="group" parent="1" vertex="1" connectable="0">
                    <mxGeometry x="283.42" y="140" width="184.17" height="190" as="geometry"/>
                </mxCell>
                <mxCell id="4" value="Regfile&lt;br&gt;" style="whiteSpace=wrap;html=1;aspect=fixed;rounded=1;shadow=0;glass=0;hachureGap=4;fontFamily=Helvetica;fontSize=16;fillColor=none;gradientColor=none;points=[[0,0,0,0,0],[0,0.25,0,0,0],[0,0.41,0,0,0],[0,0.58,0,0,0],[0,0.75,0,0,0],[0,1,0,0,0],[0.25,0,0,0,0],[0.25,1,0,0,0],[0.5,0,0,0,0],[0.5,1,0,0,0],[0.75,0,0,0,0],[0.75,1,0,0,0],[1,0,0,0,0],[1,0.25,0,0,0],[1,0.5,0,0,0],[1,0.75,0,0,0],[1,1,0,0,0]];movable=1;resizable=1;rotatable=1;deletable=1;editable=1;connectable=1;container=0;" parent="3" vertex="1">
                    <mxGeometry width="182.36880720167147" height="182.36880720167147" as="geometry"/>
                </mxCell>
                <mxCell id="5" value="&lt;font style=&quot;font-size: 12px;&quot;&gt;RD1&lt;/font&gt;" style="text;html=1;strokeColor=none;fillColor=none;align=center;verticalAlign=middle;whiteSpace=wrap;rounded=0;shadow=0;glass=0;hachureGap=4;fontFamily=Helvetica;fontSize=16;movable=1;resizable=1;rotatable=1;deletable=1;editable=1;connectable=1;container=0;" parent="3" vertex="1">
                    <mxGeometry x="138.4337369251112" y="38.56529576253204" width="35.349350548066326" height="22.518365815415972" as="geometry"/>
                </mxCell>
                <mxCell id="6" value="&lt;font style=&quot;font-size: 12px;&quot;&gt;RD2&lt;/font&gt;" style="text;html=1;strokeColor=none;fillColor=none;align=center;verticalAlign=middle;whiteSpace=wrap;rounded=0;shadow=0;glass=0;hachureGap=4;fontFamily=Helvetica;fontSize=16;movable=1;resizable=1;rotatable=1;deletable=1;editable=1;connectable=1;container=0;" parent="3" vertex="1">
                    <mxGeometry x="140.8809808317237" y="114.8615404891913" width="30.456852870644656" height="14.885771606245582" as="geometry"/>
                </mxCell>
                <mxCell id="7" value="RA1" style="text;html=1;strokeColor=none;fillColor=none;align=center;verticalAlign=middle;whiteSpace=wrap;rounded=0;shadow=0;glass=0;hachureGap=4;fontFamily=Helvetica;fontSize=12;movable=1;resizable=1;rotatable=1;deletable=1;editable=1;connectable=1;container=0;" parent="3" vertex="1">
                    <mxGeometry x="17.098546865592144" y="43.48491332222145" width="31.377815601884897" height="17.597378123896203" as="geometry"/>
                </mxCell>
                <mxCell id="8" value="RA2" style="text;html=1;strokeColor=none;fillColor=none;align=center;verticalAlign=middle;whiteSpace=wrap;rounded=0;shadow=0;glass=0;hachureGap=4;fontFamily=Helvetica;fontSize=12;movable=1;resizable=1;rotatable=1;deletable=1;editable=1;connectable=1;container=0;" parent="3" vertex="1">
                    <mxGeometry x="17.0972977582951" y="114.8629483465102" width="26.203150947553915" height="16.62504387288991" as="geometry"/>
                </mxCell>
                <mxCell id="9" value="WA" style="text;html=1;strokeColor=none;fillColor=none;align=center;verticalAlign=middle;whiteSpace=wrap;rounded=0;shadow=0;glass=0;hachureGap=4;fontFamily=Helvetica;fontSize=12;movable=1;resizable=1;rotatable=1;deletable=1;editable=1;connectable=1;container=0;" parent="3" vertex="1">
                    <mxGeometry x="55.63297603728442" y="158.9103509831193" width="17.63179438957519" height="15.5454955694555" as="geometry"/>
                </mxCell>
                <mxCell id="10" value="WD" style="text;html=1;strokeColor=none;fillColor=none;align=center;verticalAlign=middle;whiteSpace=wrap;rounded=0;shadow=0;glass=0;hachureGap=4;fontFamily=Helvetica;fontSize=12;movable=1;resizable=1;rotatable=1;deletable=1;editable=1;connectable=1;container=0;" parent="3" vertex="1">
                    <mxGeometry x="112.59355714959787" y="156.34236497068235" width="35.860360687868464" height="20.671841353307244" as="geometry"/>
                </mxCell>
                <mxCell id="11" value="WE" style="text;html=1;align=center;verticalAlign=middle;resizable=1;points=[];autosize=1;strokeColor=none;fillColor=none;movable=1;rotatable=1;deletable=1;editable=1;connectable=1;container=0;" parent="3" vertex="1">
                    <mxGeometry x="73.26271688531524" y="10.648664465076955" width="28.698294394315614" height="24.760519887571622" as="geometry"/>
                </mxCell>
                <mxCell id="12" value="" style="triangle;whiteSpace=wrap;html=1;fontSize=14;direction=south;movable=1;resizable=1;rotatable=1;deletable=1;editable=1;connectable=1;fillColor=none;container=0;" parent="3" vertex="1">
                    <mxGeometry x="123.46124512154972" width="35.27464146329993" height="38.04477124517126" as="geometry"/>
                </mxCell>
                <mxCell id="13" value="Mux&lt;br&gt;" style="shape=trapezoid;perimeter=trapezoidPerimeter;whiteSpace=wrap;html=1;fixedSize=1;direction=south;" parent="1" vertex="1">
                    <mxGeometry x="630" y="310" width="37" height="80" as="geometry"/>
                </mxCell>
                <mxCell id="14" value="" style="group" parent="1" vertex="1" connectable="0">
                    <mxGeometry x="-150" y="193.5" width="50" height="83" as="geometry"/>
                </mxCell>
                <mxCell id="15" value="PC&lt;br&gt;" style="rounded=0;whiteSpace=wrap;html=1;shadow=0;glass=0;hachureGap=4;fontFamily=Helvetica;fontSize=15;fillColor=default;gradientColor=none;" parent="14" vertex="1">
                    <mxGeometry width="50" height="83" as="geometry"/>
                </mxCell>
                <mxCell id="16" value="" style="triangle;whiteSpace=wrap;html=1;fontSize=14;direction=south;" parent="14" vertex="1">
                    <mxGeometry x="12" width="26" height="22" as="geometry"/>
                </mxCell>
                <mxCell id="17" value="" style="group" parent="1" vertex="1" connectable="0">
                    <mxGeometry x="750" y="260" width="162" height="203" as="geometry"/>
                </mxCell>
                <mxCell id="18" value="&lt;font style=&quot;font-size: 14px;&quot;&gt;ALU&lt;/font&gt;" style="shape=loopLimit;whiteSpace=wrap;html=1;direction=north;" parent="17" vertex="1">
                    <mxGeometry width="162" height="203" as="geometry"/>
                </mxCell>
                <mxCell id="19" value="Src1" style="text;strokeColor=none;align=center;fillColor=none;html=1;verticalAlign=middle;whiteSpace=wrap;rounded=0;fontSize=14;" parent="17" vertex="1">
                    <mxGeometry x="20.571428571428573" y="57.131736526946106" width="21.857142857142858" height="12.15568862275449" as="geometry"/>
                </mxCell>
                <mxCell id="20" value="Src2" style="text;strokeColor=none;align=center;fillColor=none;html=1;verticalAlign=middle;whiteSpace=wrap;rounded=0;fontSize=14;" parent="17" vertex="1">
                    <mxGeometry x="23.142857142857146" y="133.7125748502994" width="21.857142857142858" height="12.15568862275449" as="geometry"/>
                </mxCell>
                <mxCell id="22" value="ALURes" style="text;strokeColor=none;align=center;fillColor=none;html=1;verticalAlign=middle;whiteSpace=wrap;rounded=0;fontSize=14;" parent="17" vertex="1">
                    <mxGeometry x="119.00142857142873" y="98.0017365269461" width="21.857142857142858" height="12.15568862275449" as="geometry"/>
                </mxCell>
                <mxCell id="23" value="" style="group" parent="1" vertex="1" connectable="0">
                    <mxGeometry x="1250" y="180" width="193" height="251" as="geometry"/>
                </mxCell>
                <mxCell id="24" value="Data&lt;br&gt;&amp;nbsp;Memory" style="rounded=0;whiteSpace=wrap;html=1;shadow=0;glass=0;hachureGap=4;fontFamily=Helvetica;fontSize=16;fillColor=default;gradientColor=none;points=[[0,0,0,0,0],[0,0.25,0,0,0],[0,0.5,0,0,0],[0,0.75,0,0,0],[0,1,0,0,0],[0.25,0,0,0,0],[0.25,1,0,0,0],[0.5,0,0,0,0],[0.5,1,0,0,0],[0.75,0,0,0,0],[0.75,1,0,0,0],[1,0,0,0,0],[1,0.09,0,0,0],[1,0.19,0,0,0],[1,0.28,0,0,0],[1,0.39,0,0,0],[1,0.5,0,0,0],[1,0.61,0,0,0],[1,0.7,0,0,0],[1,0.82,0,0,0],[1,0.9,0,0,0],[1,1,0,0,0]];container=0;" parent="23" vertex="1">
                    <mxGeometry width="193" height="251.00000000000003" as="geometry"/>
                </mxCell>
                <mxCell id="25" value="Addr" style="text;strokeColor=none;align=center;fillColor=none;html=1;verticalAlign=middle;whiteSpace=wrap;rounded=0;container=0;" parent="23" vertex="1">
                    <mxGeometry x="17.545454545454547" y="49.86754966887417" width="54.58585858585859" height="24.102649006622517" as="geometry"/>
                </mxCell>
                <mxCell id="26" value="WD" style="text;strokeColor=none;align=center;fillColor=none;html=1;verticalAlign=middle;whiteSpace=wrap;rounded=0;container=0;" parent="23" vertex="1">
                    <mxGeometry x="21.444444444444446" y="177.86092715231788" width="46.78787878787879" height="33.24503311258278" as="geometry"/>
                </mxCell>
                <mxCell id="27" value="" style="triangle;whiteSpace=wrap;html=1;fontSize=14;direction=south;container=0;" parent="23" vertex="1">
                    <mxGeometry x="122.81818181818183" width="50.686868686868685" height="36.56953642384106" as="geometry"/>
                </mxCell>
                <mxCell id="28" value="RD" style="text;strokeColor=none;align=center;fillColor=none;html=1;verticalAlign=middle;whiteSpace=wrap;rounded=0;container=0;" parent="23" vertex="1">
                    <mxGeometry x="122.81545454545449" y="56.99754966887417" width="54.58585858585859" height="24.102649006622517" as="geometry"/>
                </mxCell>
                <mxCell id="29" value="Instruction Ram" style="rounded=0;whiteSpace=wrap;html=1;shadow=0;glass=0;hachureGap=4;fontFamily=Helvetica;fontSize=16;fillColor=default;gradientColor=none;points=[[0,0,0,0,0],[0,0.25,0,0,0],[0,0.5,0,0,0],[0,0.75,0,0,0],[0,1,0,0,0],[0.25,0,0,0,0],[0.25,1,0,0,0],[0.5,0,0,0,0],[0.5,1,0,0,0],[0.75,0,0,0,0],[0.75,1,0,0,0],[1,0,0,0,0],[1,0.09,0,0,0],[1,0.19,0,0,0],[1,0.28,0,0,0],[1,0.39,0,0,0],[1,0.5,0,0,0],[1,0.61,0,0,0],[1,0.7,0,0,0],[1,0.82,0,0,0],[1,0.9,0,0,0],[1,1,0,0,0]];" parent="1" vertex="1">
                    <mxGeometry x="-50" y="159" width="99" height="151" as="geometry"/>
                </mxCell>
                <mxCell id="30" value="&amp;lt;&amp;lt;2" style="html=1;whiteSpace=wrap;aspect=fixed;shape=isoRectangle;fontSize=13;" parent="1" vertex="1">
                    <mxGeometry x="31.999999999999986" y="386" width="109.74" height="65.85" as="geometry"/>
                </mxCell>
                <mxCell id="31" value="" style="group" vertex="1" connectable="0" parent="1">
                    <mxGeometry x="750" y="-70" width="162" height="203" as="geometry"/>
                </mxCell>
                <mxCell id="32" value="&lt;font style=&quot;font-size: 14px;&quot;&gt;BRU&lt;/font&gt;" style="shape=loopLimit;whiteSpace=wrap;html=1;direction=north;" vertex="1" parent="31">
                    <mxGeometry width="162" height="203" as="geometry"/>
                </mxCell>
                <mxCell id="33" value="Src1" style="text;strokeColor=none;align=center;fillColor=none;html=1;verticalAlign=middle;whiteSpace=wrap;rounded=0;fontSize=14;" vertex="1" parent="31">
                    <mxGeometry x="20.571428571428573" y="57.131736526946106" width="21.857142857142858" height="12.15568862275449" as="geometry"/>
                </mxCell>
                <mxCell id="34" value="Src2" style="text;strokeColor=none;align=center;fillColor=none;html=1;verticalAlign=middle;whiteSpace=wrap;rounded=0;fontSize=14;" vertex="1" parent="31">
                    <mxGeometry x="23.142857142857146" y="133.7125748502994" width="21.857142857142858" height="12.15568862275449" as="geometry"/>
                </mxCell>
                <mxCell id="35" value="taken" style="text;strokeColor=none;align=center;fillColor=none;html=1;verticalAlign=middle;whiteSpace=wrap;rounded=0;fontSize=14;" vertex="1" parent="31">
                    <mxGeometry x="119.00142857142873" y="98.0017365269461" width="21.857142857142858" height="12.15568862275449" as="geometry"/>
                </mxCell>
                <mxCell id="36" value="" style="group" vertex="1" connectable="0" parent="1">
                    <mxGeometry x="270.00000000000006" y="-180" width="211" height="241" as="geometry"/>
                </mxCell>
                <mxCell id="37" value="" style="group;points=[[0,0,0,0,0],[0,0.25,0,0,0],[0,0.5,0,0,0],[0,0.75,0,0,0],[0,0.86,0,0,0],[0,1,0,0,0],[0.25,0,0,0,0],[0.25,1,0,0,0],[0.5,0,0,0,0],[0.5,1,0,0,0],[0.75,0,0,0,0],[0.75,1,0,0,0],[1,0,0,0,0],[1,0.25,0,0,0],[1,0.5,0,0,0],[1,0.75,0,0,0],[1,1,0,0,0]];" vertex="1" connectable="0" parent="36">
                    <mxGeometry width="211" height="241" as="geometry"/>
                </mxCell>
                <mxCell id="38" value="Control&lt;br&gt;Unit&lt;br&gt;" style="rounded=0;whiteSpace=wrap;html=1;shadow=0;glass=0;hachureGap=4;fontFamily=Helvetica;fontSize=16;fillColor=default;gradientColor=none;points=[[0,0,0,0,0],[0,0.25,0,0,0],[0,0.37,0,0,0],[0,0.5,0,0,0],[0,0.63,0,0,0],[0,0.75,0,0,0],[0,0.88,0,0,0],[0,1,0,0,0],[0.25,0,0,0,0],[0.25,1,0,0,0],[0.5,0,0,0,0],[0.5,1,0,0,0],[0.63,1,0,0,0],[0.75,0,0,0,0],[0.75,1,0,0,0],[1,0,0,0,0],[1,0.09,0,0,0],[1,0.19,0,0,0],[1,0.28,0,0,0],[1,0.39,0,0,0],[1,0.5,0,0,0],[1,0.61,0,0,0],[1,0.7,0,0,0],[1,0.82,0,0,0],[1,0.9,0,0,0],[1,1,0,0,0]];" vertex="1" parent="37">
                    <mxGeometry width="211" height="241" as="geometry"/>
                </mxCell>
                <mxCell id="39" value="RegWrite" style="text;html=1;strokeColor=none;fillColor=none;align=center;verticalAlign=middle;whiteSpace=wrap;rounded=0;shadow=0;glass=0;hachureGap=4;fontFamily=Helvetica;fontSize=12;movable=1;resizable=1;rotatable=1;deletable=1;editable=1;connectable=1;container=0;" vertex="1" parent="37">
                    <mxGeometry x="155.00229074889864" y="206.27240585774078" width="37.852422907488986" height="20.37585774058577" as="geometry"/>
                </mxCell>
                <mxCell id="40" value="&lt;div style=&quot;color: rgb(204, 204, 204); background-color: rgb(31, 31, 31); font-family: Consolas, &amp;quot;Courier New&amp;quot;, monospace; font-size: 14px; line-height: 19px;&quot;&gt;ALUImm&lt;/div&gt;" style="text;html=1;strokeColor=none;fillColor=none;align=center;verticalAlign=middle;whiteSpace=wrap;rounded=0;shadow=0;glass=0;hachureGap=4;fontFamily=Helvetica;fontSize=12;movable=1;resizable=1;rotatable=1;deletable=1;editable=1;connectable=1;container=0;" vertex="1" parent="37">
                    <mxGeometry x="155.00229074889864" y="185.89240585774078" width="37.852422907488986" height="20.37585774058577" as="geometry"/>
                </mxCell>
                <mxCell id="41" value="&lt;div style=&quot;color: rgb(204, 204, 204); background-color: rgb(31, 31, 31); font-family: Consolas, &amp;quot;Courier New&amp;quot;, monospace; font-size: 14px; line-height: 19px;&quot;&gt;ALUShamt&lt;/div&gt;" style="text;html=1;strokeColor=none;fillColor=none;align=center;verticalAlign=middle;whiteSpace=wrap;rounded=0;shadow=0;glass=0;hachureGap=4;fontFamily=Helvetica;fontSize=12;movable=1;resizable=1;rotatable=1;deletable=1;editable=1;connectable=1;container=0;" vertex="1" parent="37">
                    <mxGeometry x="155.00229074889864" y="159.00240585774077" width="37.852422907488986" height="20.37585774058577" as="geometry"/>
                </mxCell>
                <mxCell id="42" value="&lt;div style=&quot;color: rgb(204, 204, 204); background-color: rgb(31, 31, 31); font-family: Consolas, &amp;quot;Courier New&amp;quot;, monospace; font-size: 14px; line-height: 19px;&quot;&gt;ALUOp&lt;/div&gt;" style="text;html=1;strokeColor=none;fillColor=none;align=center;verticalAlign=middle;whiteSpace=wrap;rounded=0;shadow=0;glass=0;hachureGap=4;fontFamily=Helvetica;fontSize=12;movable=1;resizable=1;rotatable=1;deletable=1;editable=1;connectable=1;container=0;" vertex="1" parent="37">
                    <mxGeometry x="151.00229074889864" y="135.00240585774077" width="37.852422907488986" height="20.37585774058577" as="geometry"/>
                </mxCell>
                <mxCell id="43" value="&lt;div style=&quot;color: rgb(204, 204, 204); background-color: rgb(31, 31, 31); font-family: Consolas, &amp;quot;Courier New&amp;quot;, monospace; font-size: 14px; line-height: 19px;&quot;&gt;MemWrite&lt;/div&gt;" style="text;html=1;strokeColor=none;fillColor=none;align=center;verticalAlign=middle;whiteSpace=wrap;rounded=0;shadow=0;glass=0;hachureGap=4;fontFamily=Helvetica;fontSize=12;movable=1;resizable=1;rotatable=1;deletable=1;editable=1;connectable=1;container=0;" vertex="1" parent="37">
                    <mxGeometry x="151.00229074889864" y="110.31240585774077" width="37.852422907488986" height="20.37585774058577" as="geometry"/>
                </mxCell>
                <mxCell id="44" value="&lt;div style=&quot;color: rgb(204, 204, 204); background-color: rgb(31, 31, 31); font-family: Consolas, &amp;quot;Courier New&amp;quot;, monospace; font-size: 14px; line-height: 19px;&quot;&gt;MemtoReg&lt;/div&gt;" style="text;html=1;strokeColor=none;fillColor=none;align=center;verticalAlign=middle;whiteSpace=wrap;rounded=0;shadow=0;glass=0;hachureGap=4;fontFamily=Helvetica;fontSize=12;movable=1;resizable=1;rotatable=1;deletable=1;editable=1;connectable=1;container=0;" vertex="1" parent="37">
                    <mxGeometry x="151.00229074889864" y="85.00240585774077" width="37.852422907488986" height="20.37585774058577" as="geometry"/>
                </mxCell>
                <mxCell id="45" value="&lt;div style=&quot;color: rgb(204, 204, 204); background-color: rgb(31, 31, 31); font-family: Consolas, &amp;quot;Courier New&amp;quot;, monospace; font-size: 14px; line-height: 19px;&quot;&gt;Branch&lt;/div&gt;" style="text;html=1;strokeColor=none;fillColor=none;align=center;verticalAlign=middle;whiteSpace=wrap;rounded=0;shadow=0;glass=0;hachureGap=4;fontFamily=Helvetica;fontSize=12;movable=1;resizable=1;rotatable=1;deletable=1;editable=1;connectable=1;container=0;" vertex="1" parent="37">
                    <mxGeometry x="151.00229074889864" y="12.002405857740769" width="37.852422907488986" height="20.37585774058577" as="geometry"/>
                </mxCell>
                <mxCell id="46" value="&lt;div style=&quot;color: rgb(204, 204, 204); background-color: rgb(31, 31, 31); font-family: Consolas, &amp;quot;Courier New&amp;quot;, monospace; font-size: 14px; line-height: 19px;&quot;&gt;RegDst&lt;/div&gt;" style="text;html=1;strokeColor=none;fillColor=none;align=center;verticalAlign=middle;whiteSpace=wrap;rounded=0;shadow=0;glass=0;hachureGap=4;fontFamily=Helvetica;fontSize=12;movable=1;resizable=1;rotatable=1;deletable=1;editable=1;connectable=1;container=0;" vertex="1" parent="37">
                    <mxGeometry x="34.002290748898645" y="214.00240585774077" width="37.852422907488986" height="20.37585774058577" as="geometry"/>
                </mxCell>
                <mxCell id="47" value="&lt;div style=&quot;color: rgb(204, 204, 204); background-color: rgb(31, 31, 31); font-family: Consolas, &amp;quot;Courier New&amp;quot;, monospace; font-size: 14px; line-height: 19px;&quot;&gt;SignEx&lt;/div&gt;" style="text;html=1;strokeColor=none;fillColor=none;align=center;verticalAlign=middle;whiteSpace=wrap;rounded=0;shadow=0;glass=0;hachureGap=4;fontFamily=Helvetica;fontSize=12;movable=1;resizable=1;rotatable=1;deletable=1;editable=1;connectable=1;container=0;" vertex="1" parent="37">
                    <mxGeometry x="91.00229074889864" y="214.00240585774077" width="37.852422907488986" height="20.37585774058577" as="geometry"/>
                </mxCell>
                <mxCell id="48" value="&lt;div style=&quot;color: rgb(204, 204, 204); background-color: rgb(31, 31, 31); font-family: Consolas, &amp;quot;Courier New&amp;quot;, monospace; font-size: 14px; line-height: 19px;&quot;&gt;Jump&lt;/div&gt;" style="text;html=1;strokeColor=none;fillColor=none;align=center;verticalAlign=middle;whiteSpace=wrap;rounded=0;shadow=0;glass=0;hachureGap=4;fontFamily=Helvetica;fontSize=12;movable=1;resizable=1;rotatable=1;deletable=1;editable=1;connectable=1;container=0;" vertex="1" parent="37">
                    <mxGeometry x="17.002290748898645" y="170.00240585774077" width="37.852422907488986" height="20.37585774058577" as="geometry"/>
                </mxCell>
                <mxCell id="49" value="&lt;div style=&quot;color: rgb(204, 204, 204); background-color: rgb(31, 31, 31); font-family: Consolas, &amp;quot;Courier New&amp;quot;, monospace; font-size: 14px; line-height: 19px;&quot;&gt;Op&lt;/div&gt;" style="text;html=1;strokeColor=none;fillColor=none;align=center;verticalAlign=middle;whiteSpace=wrap;rounded=0;shadow=0;glass=0;hachureGap=4;fontFamily=Helvetica;fontSize=12;movable=1;resizable=1;rotatable=1;deletable=1;editable=1;connectable=1;container=0;" vertex="1" parent="37">
                    <mxGeometry x="17.002290748898645" y="50.00240585774077" width="37.852422907488986" height="20.37585774058577" as="geometry"/>
                </mxCell>
                <mxCell id="50" value="&lt;div style=&quot;color: rgb(204, 204, 204); background-color: rgb(31, 31, 31); font-family: Consolas, &amp;quot;Courier New&amp;quot;, monospace; font-size: 14px; line-height: 19px;&quot;&gt;Func&lt;/div&gt;" style="text;html=1;strokeColor=none;fillColor=none;align=center;verticalAlign=middle;whiteSpace=wrap;rounded=0;shadow=0;glass=0;hachureGap=4;fontFamily=Helvetica;fontSize=12;movable=1;resizable=1;rotatable=1;deletable=1;editable=1;connectable=1;container=0;" vertex="1" parent="37">
                    <mxGeometry x="24.002290748898645" y="80.00240585774077" width="37.852422907488986" height="20.37585774058577" as="geometry"/>
                </mxCell>
                <mxCell id="51" style="edgeStyle=none;html=1;exitX=1;exitY=0.5;exitDx=0;exitDy=0;exitPerimeter=0;" edge="1" parent="36" source="38">
                    <mxGeometry relative="1" as="geometry">
                        <mxPoint x="210.99999999999918" y="120.97628458498009" as="targetPoint"/>
                    </mxGeometry>
                </mxCell>
                <mxCell id="53" style="edgeStyle=none;html=1;exitX=1;exitY=0.5;exitDx=0;exitDy=0;entryX=0;entryY=0.5;entryDx=0;entryDy=0;entryPerimeter=0;" edge="1" parent="1" source="15" target="29">
                    <mxGeometry relative="1" as="geometry"/>
                </mxCell>
            </root>
        </mxGraphModel>
    </diagram>
</mxfile>